<?xml version="1.0" encoding="utf-8"?>
<!-- Generator: Adobe Illustrator 26.2.1, SVG Export Plug-In . SVG Version: 6.00 Build 0)  -->
<svg version="1.1" xmlns="http://www.w3.org/2000/svg" xmlns:xlink="http://www.w3.org/1999/xlink" x="0px" y="0px"
	 viewBox="0 0 575 466" style="enable-background:new 0 0 575 466;" xml:space="preserve">
<style type="text/css">
	.st0{fill:#FBCF24;}
	.st1{fill:#F5A60B;}
	.st2{fill:none;stroke:#FBCF24;stroke-width:10;stroke-linejoin:round;stroke-miterlimit:10;}
	.st3{fill:#FB663C;}
	.st4{stroke:#000000;stroke-width:10;stroke-miterlimit:10;}
	.st5{fill:#FFFFFF;}
	.st6{display:none;}
	.st7{display:inline;}
</style>
<g id="Kaczka">
	<path class="st0" d="M150.71,28.55c10.32-5.16,48.67-23.62,98-14c10.93,2.13,68.13,13.29,92,58c29.43,55.13-15.5,126.27,8,138
		c5.08,2.54,164.23-6.64,189,21c29.35,32.76,2.08,159.51-87,200c-47.11,21.41-301.1,25.76-346,4c-46.68-22.61-74.95-96.01-57-129
		c16.17-29.73,49-69,49-69s4.79-8.05-13-27c-3.02-4.53-26.79-48.68-18-85C80.71,63.55,129.32,39.23,150.71,28.55z"/>
	<path class="st1" d="M186,334c2.64-27.81,33.78-44.87,51-54c74.96-39.76,192.13-41.29,207-2c11.46,30.29-39.78,79.87-83,102
		c-49.5,25.34-123.48,32.61-158-4C198.02,370.72,184.09,354.16,186,334z"/>
	<path class="st2" d="M328,294c39.97-4.3,68.79-17.7,88-40"/>
	<path class="st2" d="M339,321c46.33-5.48,79.74-22.57,102-51"/>
	<path class="st3" d="M84,211c-3.41-13.48-4.45-27.32-1.29-40.64C71.05,159.41,64.34,147.08,64,133
		c-12.38,22.39-31.15,34.09-50.29,46.02C23.93,193.2,51.77,207.02,84,211z"/>
</g>
<g id="Oko">
	
		<ellipse transform="matrix(0.1728 -0.985 0.985 0.1728 -20.028 235.583)" class="st4" cx="130.24" cy="129.72" rx="25.96" ry="16.52"/>
	<g>
		<ellipse class="st5" cx="133.5" cy="121" rx="6" ry="7.5"/>
		<path d="M133.5,114c3.03,0,5.5,3.14,5.5,7s-2.47,7-5.5,7s-5.5-3.14-5.5-7S130.47,114,133.5,114 M133.5,113c-3.59,0-6.5,3.58-6.5,8
			s2.91,8,6.5,8s6.5-3.58,6.5-8S137.09,113,133.5,113L133.5,113z"/>
	</g>
</g>
<g id="Layer_5" class="st6">
	<g id="Layer_4" class="st7">
	</g>
	<g id="Tło" class="st7">
	</g>
</g>
</svg>
